<svg width="500" height="500" viewBox="0 0 500 500" fill="none" xmlns="http://www.w3.org/2000/svg">
<path d="M245.496 4.21079C244.932 4.85654 244.207 5.42158 243.804 5.42158C243.32 5.42158 228.896 13.8971 220.193 19.386C213.183 23.7448 195.696 36.014 189.653 40.8572C187.074 42.8752 183.448 45.781 181.595 47.234C158.226 65.7993 129.377 95.5846 115.114 116.007C107.862 126.339 104.478 131.343 104.478 131.747C104.478 131.908 103.511 133.603 102.302 135.54C98.5951 141.352 98.1921 141.917 93.9213 150.716C90.0534 158.707 89.2475 160.483 86.4272 167.021C83.9291 173.075 81.1087 181.066 80.3029 184.618C79.9806 186.151 79.3359 188.492 78.8524 189.864C77.8855 192.77 75.9515 201.73 74.2593 211.255C72.567 220.699 72.567 246.852 74.3399 256.78C77.3214 274.216 82.9621 290.037 91.9873 306.1C93.9213 309.651 98.8368 316.835 102.141 321.033C107.379 327.732 121.077 341.132 128.33 346.62C139.772 355.257 156.856 364.702 170.394 369.787C177.727 372.612 179.983 373.338 184.657 374.711C197.872 378.424 203.755 379.877 210.362 380.765C213.425 381.168 216.406 381.975 216.97 382.46C218.421 383.67 218.421 390.451 216.89 402.962C216.245 408.29 215.681 415.393 215.681 418.783C215.681 422.173 215.278 428.712 214.794 433.313C214.311 437.914 213.666 446.954 213.425 453.412L212.86 465.116L203.996 466.569C193.44 468.264 183.448 470.201 179.016 471.331C177.243 471.735 174.181 472.461 172.166 472.865C170.152 473.268 166.042 474.318 162.9 475.206C159.837 476.174 155.969 477.224 154.438 477.627C151.215 478.354 147.589 479.645 136.307 483.843C134.535 484.569 131.634 485.618 129.861 486.264C120.916 489.574 117.048 491.672 116.645 493.448C115.92 497.081 111.811 497 248.8 497C330.994 497 379.101 496.677 380.391 496.193C382.969 495.224 383.13 492.722 380.713 491.188C376.926 488.847 354.524 480.13 345.821 477.627C344.532 477.224 340.905 476.174 337.763 475.206C334.701 474.318 330.671 473.268 328.899 472.865C327.126 472.461 324.064 471.816 322.049 471.331C312.54 468.99 292.878 465.519 289.575 465.519C286.593 465.519 285.787 463.501 285.787 455.672C285.787 451.959 285.223 443.483 284.578 436.864C283.934 430.165 283.37 421.689 283.37 417.895C283.37 414.102 283.047 408.936 282.564 406.272C282.161 403.689 281.597 397.554 281.275 392.55C280.872 385.366 280.952 383.348 281.839 382.621C282.483 382.137 285.545 381.33 288.608 380.845C294.41 379.957 299.406 378.827 304.321 377.294C305.852 376.89 308.431 376.164 309.962 375.841C312.621 375.276 314.313 374.791 321.485 372.208C335.668 367.042 350.736 359.778 359.923 353.724C379.262 340.97 396.023 324.019 406.338 306.907C412.14 297.221 419.553 280.027 421.085 272.601C421.407 271.068 422.132 268.485 422.616 266.951C424.952 259.363 426 249.193 426 233.13C426 214.241 424.469 203.102 419.956 188.573C419.312 186.474 418.748 184.214 418.748 183.488C418.748 182.842 418.264 181.066 417.619 179.613C416.975 178.16 415.927 175.496 415.283 173.721C414.638 171.945 413.429 168.877 412.704 166.859C410.851 162.178 401.422 142.967 399.408 139.819C398.522 138.446 397.474 136.671 396.99 135.783C393.767 129.648 376.2 105.19 370.721 99.0555C369.673 97.9255 366.611 94.4546 363.871 91.3872C348.722 74.4363 327.851 55.2252 309.962 41.7451C306.174 38.8392 302.951 36.3369 302.709 36.0948C301.984 35.3683 283.853 22.6147 279.744 19.951C272.814 15.5114 255.811 5.42158 255.247 5.42158C254.844 5.42158 254.118 4.85654 253.554 4.21079C252.99 3.56504 251.218 3.00001 249.525 3.00001C247.833 3.00001 246.06 3.56504 245.496 4.21079ZM255.73 67.7366C258.309 70.8846 261.693 75.3242 263.224 77.5843C266.609 82.5889 273.7 96.7147 273.7 98.6519C273.7 99.3784 274.103 100.751 274.667 101.719C275.15 102.688 276.037 107.45 276.601 112.374C278.132 125.289 276.601 137.478 272.33 147.487C268.946 155.236 263.869 163.389 259.195 168.474L256.617 171.299L257.181 189.057C257.986 220.215 259.034 240.475 259.84 241.282C260.726 242.17 276.52 225.381 277.729 222.233C278.132 221.022 278.535 219.085 278.535 217.955C278.535 213.919 283.612 200.196 287.641 193.093C293.765 182.519 305.046 171.218 314.474 166.052C322.533 161.693 323.338 161.29 328.254 159.675C336.151 157.092 344.693 155.559 352.67 155.397C360.729 155.155 362.743 155.72 361.937 157.738C361.696 158.465 361.131 161.209 360.729 163.954C355.894 194.627 335.265 219.004 307.544 226.834C303.515 227.964 298.036 228.932 288.044 230.224C285.384 230.547 283.934 231.192 283.128 232.565C282 234.26 277.89 239.264 273.378 244.35C272.411 245.48 270.396 247.982 268.865 250C267.415 252.018 265.803 253.955 265.239 254.439C264.755 254.843 263.466 256.538 262.338 258.072L260.323 260.897L260.887 274.216C261.21 281.561 261.532 294.88 261.532 303.839C261.613 322.889 261.532 322.808 268.865 316.189C271.282 314.01 275.876 310.055 279.099 307.553C284.337 303.274 284.981 302.387 286.593 297.624C293.443 276.556 308.35 258.637 326.078 250.323C340.261 243.542 344.693 242.735 366.692 242.735H384.903V244.753C384.903 245.803 384.42 247.901 383.775 249.354C383.13 250.807 382.002 253.632 381.277 255.65C378.86 261.704 374.589 270.503 372.413 273.731C371.285 275.346 370.398 276.879 370.398 277.202C370.398 278.252 361.937 288.099 357.344 292.458C348.077 301.095 335.587 307.956 322.855 311.266C319.471 312.154 299.406 314.494 294.49 314.575C293.281 314.575 291.831 315.059 291.267 315.624C290.703 316.189 286.593 319.903 282.161 323.858C277.729 327.813 273.7 331.365 273.216 331.849C272.733 332.333 270.396 334.513 268.059 336.692L263.788 340.728L264.111 401.671L264.433 462.694H249.686H234.94V421.528C235.021 398.846 235.262 371.643 235.504 360.988L236.068 341.616L233.651 339.194C229.944 335.481 224.787 330.88 217.857 324.826C214.311 321.84 210.926 318.772 210.201 318.127C207.461 315.302 205.125 314.737 193.924 313.768C176.196 312.234 167.815 309.732 152.666 301.176C145.413 297.059 130.828 281.4 125.751 272.198C123.978 269.05 118.741 258.475 117.532 255.65C116.887 254.117 115.84 251.695 115.195 250.404C114.631 249.031 113.986 246.852 113.906 245.56L113.744 243.139L131.473 242.897C149.684 242.655 154.841 243.22 163.705 246.529C173.617 250.242 185.14 257.426 192.151 264.368C197.63 269.695 203.835 278.332 206.817 284.709C207.784 286.727 208.912 289.068 209.395 289.956C209.879 290.844 210.604 292.62 210.926 293.992C211.974 298.108 213.666 302.225 214.875 303.678C215.52 304.485 218.662 307.149 221.724 309.651C224.867 312.073 227.768 314.494 228.252 314.979C230.669 317.239 235.826 321.113 236.39 321.113C237.277 321.033 239.694 262.027 238.888 260.332C238.566 259.605 237.76 258.556 237.277 257.91C236.713 257.345 234.618 254.843 232.603 252.422C230.588 250 228.655 247.578 228.171 247.094C227.768 246.61 224.545 242.735 221.16 238.457L214.956 230.789L209.879 230.224C191.748 228.287 183.045 225.461 171.441 217.793C163.786 212.789 152.585 201.246 150.168 195.918C149.845 195.273 148.878 193.577 147.992 192.286C147.105 190.914 146.138 189.299 145.897 188.654C145.655 188.008 144.93 186.313 144.366 185.021C140.014 174.931 135.905 157.657 137.516 156.043C138.725 154.832 153.713 155.397 160.079 156.85C169.668 159.03 179.258 162.743 186.268 167.102C193.198 171.38 203.11 180.582 208.106 187.443C214.472 196.241 218.421 205.443 221.644 219.407C222.853 224.412 223.256 225.058 230.911 233.049C235.343 237.65 239.291 241.202 239.614 240.798C240.339 240.152 240.984 226.269 241.87 192.69L242.434 171.299L240.42 169.2C237.196 165.891 230.75 156.285 228.413 151.523C222.691 139.496 220.516 126.258 222.127 113.262C222.691 108.823 223.658 103.899 224.223 102.365C224.867 100.912 225.351 99.1363 225.351 98.4905C225.351 95.9075 236.31 75.647 239.05 73.2255C239.291 72.9833 241.386 70.4003 243.804 67.333C246.302 64.1042 248.639 61.9248 249.525 61.9248C250.492 61.9248 252.99 64.2657 255.73 67.7366Z" fill="#82C986"/>
</svg>
